<svg xmlns="http://www.w3.org/2000/svg" width="56" height="40" viewBox="0 0 56 40">
  <g id="Group_29" data-name="Group 29" transform="translate(0 0)">
    <rect id="Rectangle_242" data-name="Rectangle 242" width="56" height="40" rx="6" fill="#d62027"/>
    <g id="airtel" transform="translate(-617 854.6)">
      <circle id="Ellipse_6" data-name="Ellipse 6" cx="11.884" cy="11.884" r="11.884" transform="translate(633 -846.6)" fill="#fff"/>
      <path id="A" d="M62,66.291a12.782,12.782,0,0,0-2.079.493.531.531,0,0,1-.3.1,5.123,5.123,0,0,0-1.287.644.861.861,0,0,0,.149.349,7.2,7.2,0,0,0,.644,1.337.5.5,0,0,1,.149-.05,5.052,5.052,0,0,1,1.089-.446,3.267,3.267,0,0,0,.544-.2,5.627,5.627,0,0,1,1.828-.15c.891.149,1.238.544,1.287,1.634.05.594.05.594-.149.644a7.788,7.788,0,0,1-1.337.05,5.764,5.764,0,0,0-3.119.594,3.565,3.565,0,0,0-1.832,2.277,4.428,4.428,0,0,0,.05,2.129,4.16,4.16,0,0,0,4.014,2.968A7.419,7.419,0,0,0,66.5,77.28l.446-.349v-3.51c0-4.109,0-4.208-.495-5.249a3.525,3.525,0,0,0-1.436-1.388c-.2-.1-.446-.2-.544-.247A8.869,8.869,0,0,0,62,66.291Zm1.98,6.435a12.756,12.756,0,0,1,.05,1.832c0,1.882.05,1.782-.446,2.027a2.993,2.993,0,0,1-1.04.149h-.791l-.349-.247a.965.965,0,0,1-.446-.446A2.5,2.5,0,0,1,61,73.416a2.648,2.648,0,0,1,.839-.594c.05,0,.149-.05.2-.05.1-.1.4-.149,1.188-.1C63.779,72.628,63.924,72.628,63.977,72.725Z" transform="translate(582.727 -906.33)" fill="#d62027"/>
    </g>
  </g>
</svg>
