<svg xmlns="http://www.w3.org/2000/svg" width="38.393" height="27.514" viewBox="0 0 38.393 27.514">
    <defs>
        <style>
            .cls-1{fill:#be85cf}
        </style>
    </defs>
    <path id="airplane" d="M4.575 16.73a.671.671 0 0 0-.329.879l1.51 3.241a.67.67 0 0 0 .886.329l11.406-5.328-1.033 10.8a.671.671 0 0 0 .221.564 2.929 2.929 0 0 0 1.772.671 2.157 2.157 0 0 0 .53-.067 3.41 3.41 0 0 0 2.134-2.476l4.488-13.289 8.89-4.147c2.617-1.221 3.965-3.7 3.06-5.629A3.4 3.4 0 0 0 35.486.446a6.219 6.219 0 0 0-3.663.564L21.564 5.82 10.533 1.506a3.4 3.4 0 0 0-3.261.047 2.736 2.736 0 0 0-1 2.167.671.671 0 0 0 .288.53l7.427 5.106-4.252 2.013L2.6 9.557a.671.671 0 0 0-.745.322L.08 13.08a.671.671 0 0 0 .349.946l5.28 2.181zM7.648 3.385a1.148 1.148 0 0 1 .4-.725c.383-.275 1.08-.235 2.013.114l9.823 3.831L15.4 8.7zM1.61 13.073L2.777 11l6.864 1.7a.672.672 0 0 0 .443-.04l22.31-10.416a4.9 4.9 0 0 1 2.865-.456 2.1 2.1 0 0 1 1.641 1.06c.563 1.208-.544 2.973-2.416 3.845l-7.734 3.623.47-1.389a.682.682 0 1 0-1.295-.427L20.4 24.929c-.329.933-.738 1.49-1.194 1.61a1.136 1.136 0 0 1-.819-.154l1.342-14.09a.674.674 0 0 0-1.342-.127l-.208 2.154-11.511 5.367-.946-2.013 1.892-.885a.671.671 0 0 0 0-1.228zm0 0" class="cls-1" transform="translate(.001 -.375)"/>
</svg>
