<svg xmlns="http://www.w3.org/2000/svg" width="36.634" height="38.398" viewBox="0 0 36.634 38.398">
    <defs>
        <style>
            .cls-1{fill:#fa74a3}
        </style>
    </defs>
    <path id="attachment" d="M37.6 14.287a.743.743 0 0 0-1.052 0l-20.3 20.3a7.957 7.957 0 0 1-11.254-11.25l20.3-20.3a5.456 5.456 0 0 1 7.869.307 5.455 5.455 0 0 1 .308 7.869L14.4 30.284a2.737 2.737 0 0 1-3.87-3.87l12.92-12.92a.744.744 0 0 0-1.05-1.053L9.478 25.361a4.224 4.224 0 0 0 5.974 5.974l19.074-19.074c2.755-2.755 2.622-7.043-.308-9.973S27-.775 24.245 1.981l-20.3 20.3A9.445 9.445 0 0 0 17.3 35.642l20.3-20.3a.743.743 0 0 0 0-1.055z" class="cls-1" transform="translate(-1.185 -.001)"/>
</svg>
