<svg xmlns="http://www.w3.org/2000/svg" width="19" height="19" viewBox="0 0 19 19">
    <defs>
        <style>
            .cls-1,.cls-3{fill:#00a2dc}.cls-2{clip-path:url(#clip-path)}.cls-3{stroke:#00a2dc}
        </style>
        <clipPath id="clip-path">
            <path id="Rectangle_10" d="M0 0h19v19H0z" class="cls-1" data-name="Rectangle 10"/>
        </clipPath>
    </defs>
    <g id="Mask_Group_4" class="cls-2" data-name="Mask Group 4">
        <g id="cloud-computing" transform="translate(2 3.125)">
            <path id="Path_25" d="M12.744 5.174a4.281 4.281 0 0 0-4.223-4.049 4.406 4.406 0 0 0-3.486 1.752c-.019-.01-.038-.016-.057-.026a2.037 2.037 0 0 0-.151-.067l-.087-.031a2.168 2.168 0 0 0-.155-.048L4.5 2.683a1.931 1.931 0 0 0-.172-.031c-.025 0-.05-.009-.076-.011a2.243 2.243 0 0 0-2.5 2.235v.1A3.457 3.457 0 0 0 0 7.913a3.215 3.215 0 0 0 3.211 3.212H3.5a.25.25 0 0 0 0-.5h-.289A2.714 2.714 0 0 1 .5 7.913 2.972 2.972 0 0 1 2.108 5.35l.142-.068v-.157-.186-.064a1.738 1.738 0 0 1 1.979-1.733l.058.009a1.7 1.7 0 0 1 .2.044l.027.007a1.7 1.7 0 0 1 .209.08l.052.025a1.746 1.746 0 0 1 .975 1.568.25.25 0 0 0 .5 0 2.245 2.245 0 0 0-.8-1.718 3.96 3.96 0 0 1 3.071-1.532A3.774 3.774 0 0 1 12.233 5.1a4.775 4.775 0 0 0-1.021.031.25.25 0 0 0 .037.5.24.24 0 0 0 .038 0 4.592 4.592 0 0 1 1.171 0 2.562 2.562 0 0 1 2.042 2.5 2.51 2.51 0 0 1-2.507 2.507H12a.25.25 0 0 0 0 .5h-.007A3.01 3.01 0 0 0 15 8.118a3.077 3.077 0 0 0-2.256-2.944z" class="cls-3" data-name="Path 25" transform="translate(0 -1.125)"/>
            <path id="Path_26" d="M9.573 11.448L8 13.021V7.875a.25.25 0 0 0-.5 0v5.146l-1.573-1.573a.25.25 0 0 0-.353.354l2 2a.251.251 0 0 0 .354 0l2-2a.25.25 0 0 0-.354-.354z" class="cls-3" data-name="Path 26" transform="translate(0 -1.125)"/>
        </g>
    </g>
</svg>
