<svg xmlns="http://www.w3.org/2000/svg" width="16.073" height="16.139" viewBox="0 0 16.073 16.139">
    <defs>
        <style>
            .cls-1{fill:#7e90a6;stroke:#7e90a6}
        </style>
    </defs>
    <path id="letter-x_3_" d="M.213 1.252a.747.747 0 0 1 0-1.041.747.747 0 0 1 1.041 0L7.5 6.466 13.754.211a.732.732 0 0 1 1.03 1.041L8.539 7.5l6.245 6.255a.732.732 0 1 1-1.03 1.041L7.5 8.538l-6.246 6.255a.747.747 0 0 1-1.041 0 .747.747 0 0 1 0-1.041L6.458 7.5z" class="cls-1" data-name="letter-x (3)" transform="translate(.571 .568)"/>
</svg>
