<svg xmlns="http://www.w3.org/2000/svg" width="39.649" height="13" viewBox="0 0 39.649 13">
  <g id="Group_531" data-name="Group 531" transform="translate(0 0.001)">
    <path id="Path_2232" data-name="Path 2232" d="M353.964,6.036a3.359,3.359,0,0,1,1.744,3.8,3.874,3.874,0,0,1-3.291,3.244,5.259,5.259,0,0,1-.856.079c-2.694.008-5.4,0-8.091.008-.291,0-.369-.063-.369-.361q.024-6.1,0-12.215c0-.306.079-.393.385-.393,2.71.016,5.42.008,8.13.008a6.168,6.168,0,0,1,.935.079,3.244,3.244,0,0,1,2.341,4.752A2.736,2.736,0,0,1,353.964,6.036Zm-7.015,1.657c.5-.88.958-1.665,1.406-2.459.094-.157.228-.149.369-.149h2a1.625,1.625,0,0,0,.9-.251,1.179,1.179,0,0,0,.534-1.257c-.071-.479-.314-.715-.856-.833a3.093,3.093,0,0,0-.66-.079c-1.39-.008-2.773-.008-4.163-.024-.267,0-.322.086-.322.33.008,2.412.008,4.815,0,7.227,0,.267.063.353.346.353,1.4-.016,2.8,0,4.2-.008a4.714,4.714,0,0,0,.817-.071,1.183,1.183,0,0,0,.95-.613,1.384,1.384,0,0,0-1.131-2.129c-1.218-.094-2.435-.024-3.653-.039Z" transform="translate(-316.149 -0.18)" fill="#ed1a46"/>
    <path id="Path_2233" data-name="Path 2233" d="M.079,2.379c-.11-.031-.071-.126-.071-.2C.008,1.546.016.9,0,.266c0-.22.047-.3.275-.3,2.357.008,4.713-.063,7.07.024A5.117,5.117,0,0,1,12.073,3.22a7.391,7.391,0,0,1-.189,6.669,5.452,5.452,0,0,1-5.043,3.04c-2.16.039-4.32,0-6.48.016-.306,0-.361-.094-.353-.377.016-2.38.008-4.768,0-7.148a.455.455,0,0,1,.283-.487c.84-.408,1.673-.841,2.514-1.273.212-.11.291-.086.236.165-.165.039-.126.173-.126.291V9.959c0,.126-.039.275.141.314l.008.008c.031.157.157.141.275.141H6.174c.118,0,.244.016.267-.149.1-.016.2-.031.306-.055.008.016.024.031.031.047.008-.024.024-.039.031-.063A3.3,3.3,0,0,0,9.434,7.037a1.21,1.21,0,0,0,0-1.178A7.9,7.9,0,0,0,9.12,4.453,2.987,2.987,0,0,0,6.363,2.387c-.039-.189-.2-.141-.314-.141H.408C.283,2.253.126,2.2.079,2.379Z" transform="translate(0 0.052)" fill="#ed1b47"/>
    <path id="Path_2234" data-name="Path 2234" d="M179.359,3.084c-1.807,0-3.606-.008-5.412.008-.267,0-.361-.055-.354-.338.024-.652.016-1.3,0-1.964-.008-.22.071-.291.291-.291q5.467.012,10.942,0c.2,0,.275.055.275.267-.008.668-.016,1.335,0,2,.008.259-.079.33-.33.322C182.973,3.077,181.166,3.084,179.359,3.084Z" transform="translate(-159.957 -0.457)" fill="#ed1b47"/>
    <path id="Path_2235" data-name="Path 2235" d="M230.727,46.1v.33c0,2.875-.008,5.758.008,8.633,0,.322-.079.416-.408.408-.77-.031-1.54-.016-2.317,0-.228.008-.322-.031-.314-.291.008-2.435.008-4.862.008-7.3,0-.165.016-.291.2-.377.888-.44,1.767-.9,2.655-1.351A.743.743,0,0,1,230.727,46.1Z" transform="translate(-209.809 -42.475)" fill="#ed1a46"/>
    <path id="Path_2236" data-name="Path 2236" d="M37.18,55.649c-.189-.039-.141-.2-.141-.314V49.491c0-.11-.039-.244.126-.291C37.164,51.352,37.172,53.5,37.18,55.649Z" transform="translate(-34.124 -45.331)" fill="#ed1a46"/>
    <path id="Path_2237" data-name="Path 2237" d="M1,29.246c.047-.189.2-.134.322-.134h5.64c.118,0,.275-.055.314.141C5.195,29.254,3.1,29.254,1,29.246Z" transform="translate(-0.921 -26.815)" fill="#ed1a46"/>
  </g>
</svg>
