<svg xmlns="http://www.w3.org/2000/svg" width="12.95" height="15.896" viewBox="0 0 12.95 15.896">
    <defs>
        <style>
            .cls-1{fill:#c53131;stroke:#c53131;stroke-width:.5px}
        </style>
    </defs>
    <g id="delete-button" transform="translate(-45.905 .25)">
        <g id="Group_593" data-name="Group 593" transform="translate(46.155)">
            <path id="Path_2304" d="M56.847 1.845h-2.4a2.083 2.083 0 0 0-4.139 0h-2.4A1.761 1.761 0 0 0 46.155 3.6v.09a1.761 1.761 0 0 0 1.112 1.634v8.31a1.761 1.761 0 0 0 1.758 1.766h6.71a1.761 1.761 0 0 0 1.759-1.759V5.328a1.761 1.761 0 0 0 1.112-1.634V3.6a1.761 1.761 0 0 0-1.759-1.755zM52.38.834a1.252 1.252 0 0 1 1.227 1.01h-2.453A1.252 1.252 0 0 1 52.38.834zm4.279 12.8a.926.926 0 0 1-.925.925h-6.71a.926.926 0 0 1-.925-.925V5.453h8.561zm1.112-9.944a.926.926 0 0 1-.925.925h-8.932a.926.926 0 0 1-.925-.925V3.6a.926.926 0 0 1 .925-.925h8.933a.926.926 0 0 1 .925.925v.09z" class="cls-1" data-name="Path 2304" transform="translate(-46.155)"/>
            <path id="Path_2305" d="M158.492 255.1a.417.417 0 0 0 .417-.417v-4.7a.417.417 0 1 0-.834 0v4.7a.417.417 0 0 0 .417.417z" class="cls-1" data-name="Path 2305" transform="translate(-154.503 -241.606)"/>
            <path id="Path_2306" d="M228.562 255.1a.417.417 0 0 0 .417-.417v-4.7a.417.417 0 1 0-.834 0v4.7a.417.417 0 0 0 .417.417z" class="cls-1" data-name="Path 2306" transform="translate(-222.337 -241.606)"/>
            <path id="Path_2307" d="M298.631 255.1a.417.417 0 0 0 .417-.417v-4.7a.417.417 0 1 0-.834 0v4.7a.417.417 0 0 0 .417.417z" class="cls-1" data-name="Path 2307" transform="translate(-290.17 -241.606)"/>
        </g>
    </g>
</svg>
