<svg xmlns="http://www.w3.org/2000/svg" width="13.506" height="13.506" viewBox="0 0 13.506 13.506">
    <defs>
        <style>
            .cls-1{clip-path:url(#clip-path)}.cls-2{fill:#00a2dc}
        </style>
        <clipPath id="clip-path">
            <path id="Rectangle_282" d="M0 0h13.506v13.506H0z" data-name="Rectangle 282" transform="translate(585 1093)"/>
        </clipPath>
    </defs>
    <g id="Mask_Group_9" class="cls-1" data-name="Mask Group 9" transform="translate(-585 -1093)">
        <g id="pencil" transform="translate(585 1093.651)">
            <path id="Path_2308" d="M13.887 14.308h-8.1a.45.45 0 1 1 0-.9h8.1a.45.45 0 0 1 0 .9zm0 0" class="cls-2" data-name="Path 2308" transform="translate(-.831 -2.104)"/>
            <path id="Path_2309" d="M.45 12.221a.451.451 0 0 1-.438-.553l.654-2.777a.446.446 0 0 1 .12-.215L9.063.4a1.383 1.383 0 0 1 1.91 0l.849.849a1.351 1.351 0 0 1 0 1.91l-8.277 8.276a.45.45 0 0 1-.215.12l-2.776.654a.437.437 0 0 1-.1.012zm1.063-3l-.458 1.944L3 10.708l8.186-8.186a.449.449 0 0 0 0-.636l-.849-.849a.461.461 0 0 0-.636 0zm1.713 1.894zm0 0" class="cls-2" data-name="Path 2309" transform="translate(0 -.017)"/>
            <path id="Path_2310" d="M11 5.487a.447.447 0 0 1-.318-.132L8.561 3.232A.45.45 0 1 1 9.2 2.6l2.12 2.118a.451.451 0 0 1-.32.769zm0 0" class="cls-2" data-name="Path 2310" transform="translate(-1.314 -.398)"/>
        </g>
    </g>
</svg>
