<svg xmlns="http://www.w3.org/2000/svg" width="38.393" height="38.393" viewBox="0 0 38.393 38.393">
    <defs>
        <style>
            .cls-1{fill:#404cf5}.cls-2{clip-path:url(#clip-path)}
        </style>
        <clipPath id="clip-path">
            <path id="Rectangle_244" d="M0 0h38.393v38.393H0z" class="cls-1" data-name="Rectangle 244"/>
        </clipPath>
    </defs>
    <g id="Mask_Group_5" class="cls-2" data-name="Mask Group 5" transform="translate(0 -.001)">
        <g id="gift" transform="translate(0 1.223)">
            <g id="Group_533" data-name="Group 533">
                <path id="Path_2241" d="M35.993 10.348H28.4a9.323 9.323 0 0 0 1.34-1.073 5.02 5.02 0 0 0 0-7.059 5.073 5.073 0 0 0-7.038 0c-1.039 1.044-3.8 5.293-3.419 8.132h-.173c.379-2.839-2.38-7.088-3.419-8.132a5.073 5.073 0 0 0-7.038 0 5.022 5.022 0 0 0 0 7.059 9.5 9.5 0 0 0 1.341 1.073H2.4a2.4 2.4 0 0 0-2.4 2.4v6a1.2 1.2 0 0 0 1.2 1.2h1.2v14.4a2.4 2.4 0 0 0 2.4 2.4h28.794a2.4 2.4 0 0 0 2.4-2.4v-14.4h1.2a1.2 1.2 0 0 0 1.2-1.2v-6a2.4 2.4 0 0 0-2.401-2.4zM10.354 3.907a2.558 2.558 0 0 1 3.635 0c1.617 1.627 3.225 5.783 2.666 6.361a.791.791 0 0 1-.444.079c-1.658 0-4.823-1.723-5.857-2.764a2.617 2.617 0 0 1 0-3.676zM18 34.343H4.8v-14.4H18zm0-16.8H2.4v-4.8H18zm6.4-13.636a2.585 2.585 0 0 1 3.635 3.676c-1.034 1.041-4.2 2.764-5.857 2.764a.788.788 0 0 1-.446-.079c-.554-.578 1.054-4.734 2.668-6.361zm9.19 30.436H20.4v-14.4h13.2zm2.4-16.8H20.4v-4.8H36z" class="cls-1" data-name="Path 2241" transform="translate(0 -.797)"/>
            </g>
        </g>
    </g>
</svg>
