<svg xmlns="http://www.w3.org/2000/svg" width="17.256" height="17.256" viewBox="0 0 17.256 17.256">
    <defs>
        <style>
            .cls-1{fill:#fff}.cls-2{clip-path:url(#clip-path)}.cls-3{fill:#fbbb00}.cls-4{fill:#518ef8}.cls-5{fill:#28b446}.cls-6{fill:#f14336}
        </style>
        <clipPath id="clip-path">
            <path id="Rectangle_2" d="M0 0h17.255v17.255H0z" class="cls-1" data-name="Rectangle 2" transform="translate(0 6)"/>
        </clipPath>
    </defs>
    <g id="Mask_Group_2" class="cls-2" data-name="Mask Group 2" transform="translate(-.001 -6)">
        <g id="search_1_" data-name="search (1)" transform="translate(0 6)">
            <path id="Path_12" d="M3.824 8.738l-.6 2.242-2.2.046a8.643 8.643 0 0 1-.059-8.055l1.954.358.856 1.943a5.149 5.149 0 0 0 .048 3.467z" class="cls-3" data-name="Path 12" transform="translate(0 1.689)"/>
            <path id="Path_13" d="M13.908 4.473a8.624 8.624 0 0 1-3.076 8.34l-2.462-.127-.348-2.175a5.142 5.142 0 0 0 2.212-2.626H5.621V4.473h8.287z" class="cls-4" data-name="Path 13" transform="translate(3.196 2.543)"/>
            <path id="Path_14" d="M13.655 11.575a8.63 8.63 0 0 1-13-2.639l2.8-2.289a5.131 5.131 0 0 0 7.394 2.627z" class="cls-5" data-name="Path 14" transform="translate(.373 3.78)"/>
            <path id="Path_15" d="M13.785 1.986L10.99 4.274a5.13 5.13 0 0 0-7.564 2.687L.615 4.66a8.629 8.629 0 0 1 13.17-2.674z" class="cls-6" data-name="Path 15" transform="translate(.35)"/>
        </g>
    </g>
</svg>
