<svg xmlns="http://www.w3.org/2000/svg" width="19.546" height="22.756" viewBox="0 0 19.546 22.756">
    <defs>
        <style>
            .cls-1{fill:#00a2dc;stroke:#00a2dc;stroke-width:.5px}
        </style>
    </defs>
    <path id="home_1_" d="M35.933 7.706v13.449h-5.776v-6.02a.538.538 0 0 0-.538-.538H25.4a.538.538 0 0 0-.538.538v6.209a.538.538 0 1 0 1.077 0v-5.671h3.14v5.482h-9.992V7.978l8.423-6.75 8.625 6.912a.538.538 0 1 0 .673-.84L27.847.118a.538.538 0 0 0-.673 0L18.212 7.3a.538.538 0 0 0-.2.42v13.973a.538.538 0 0 0 .538.538h17.922a.538.538 0 0 0 .538-.538V7.706z" class="cls-1" data-name="home (1)" transform="translate(-17.76 .275)"/>
</svg>
