<svg xmlns="http://www.w3.org/2000/svg" width="16.181" height="13.949" viewBox="0 0 16.181 13.949">
    <defs>
        <style>
            .cls-1{fill:#00a1db;stroke:#00a1db;stroke-width:.5px}
        </style>
    </defs>
    <g id="image" transform="translate(.25 .25)">
        <path id="Path_2287" d="M182.316 99.449a1.567 1.567 0 1 0-1.567-1.567 1.568 1.568 0 0 0 1.567 1.567zm0-2.214a.648.648 0 1 1-.648.648.649.649 0 0 1 .648-.648zm0 0" class="cls-1" data-name="Path 2287" transform="translate(-175.214 -93.382)"/>
        <path id="Path_2288" d="M15.109.5H.573A.573.573 0 0 0 0 1.073v12.3a.573.573 0 0 0 .573.573h14.536a.573.573 0 0 0 .573-.573v-12.3A.573.573 0 0 0 15.109.5zm-.346.919V8.69l-2.89-2.89a.484.484 0 0 0-.683 0L7.1 9.887l-2.607-2.61a.483.483 0 0 0-.684 0l-2.89 2.889V1.419zM.919 13.03v-1.565l3.232-3.231 2.61 2.61a.483.483 0 0 0 .684 0l4.087-4.087 3.231 3.231v3.042zm0 0" class="cls-1" data-name="Path 2288" transform="translate(-.001 -.5)"/>
    </g>
</svg>
