<svg xmlns="http://www.w3.org/2000/svg" width="38.653" height="33.151" viewBox="0 0 38.653 33.151">
    <defs>
        <style>
            .cls-1{fill:#00a1db}
        </style>
    </defs>
    <g id="image" transform="translate(-.001 -.5)">
        <path id="Path_2287" d="M184.611 104.04a3.862 3.862 0 1 0-3.861-3.861 3.866 3.866 0 0 0 3.861 3.861zm0-5.458a1.6 1.6 0 1 1-1.6 1.6 1.6 1.6 0 0 1 1.6-1.601zm0 0" class="cls-1" data-name="Path 2287" transform="translate(-167.103 -88.583)"/>
        <path id="Path_2288" d="M37.243.5H1.412A1.413 1.413 0 0 0 0 1.911V32.24a1.413 1.413 0 0 0 1.411 1.411h35.832a1.413 1.413 0 0 0 1.411-1.411V1.911A1.413 1.413 0 0 0 37.243.5zm-.853 2.265v17.923l-7.123-7.123a1.193 1.193 0 0 0-1.684 0L17.508 23.64l-6.435-6.44a1.191 1.191 0 0 0-1.685 0l-7.122 7.127V2.765zM2.266 31.386V27.53l7.965-7.965L16.665 26a1.19 1.19 0 0 0 1.685 0l10.075-10.074 7.965 7.965v7.5zm0 0" class="cls-1" data-name="Path 2288"/>
    </g>
</svg>
