<svg xmlns="http://www.w3.org/2000/svg" width="17.244" height="20.822" viewBox="0 0 17.244 20.822">
    <defs>
        <style>
            .cls-1{fill:#fff;stroke:#fff;stroke-width:1.5px}
        </style>
    </defs>
    <g id="locked" transform="translate(.751 .75)">
        <path id="Path_10" d="M18.6 7.2V5.189A5.483 5.483 0 0 0 12.872 0a5.483 5.483 0 0 0-5.725 5.189V7.2A2.589 2.589 0 0 0 5 9.744v6.993a2.59 2.59 0 0 0 2.587 2.586h10.571a2.59 2.59 0 0 0 2.587-2.587V9.744A2.589 2.589 0 0 0 18.6 7.2zM7.863 5.189A4.769 4.769 0 0 1 12.872.716a4.769 4.769 0 0 1 5.01 4.473v1.968H7.863zm12.166 11.547a1.873 1.873 0 0 1-1.871 1.871H7.587a1.873 1.873 0 0 1-1.871-1.871V9.744a1.873 1.873 0 0 1 1.871-1.872h10.571a1.873 1.873 0 0 1 1.871 1.871z" class="cls-1" data-name="Path 10" transform="translate(-5)"/>
        <path id="Path_11" d="M24.431 28A1.433 1.433 0 0 0 23 29.431v2.147a1.431 1.431 0 0 0 2.863 0v-2.147A1.433 1.433 0 0 0 24.431 28zm.716 3.578a.716.716 0 0 1-1.431 0v-2.147a.716.716 0 0 1 1.431 0z" class="cls-1" data-name="Path 11" transform="translate(-16.559 -17.981)"/>
    </g>
</svg>
