<svg xmlns="http://www.w3.org/2000/svg" width="32.573" height="22" viewBox="0 0 32.573 22">
  <g id="icon" transform="translate(-1012.675 -1048)">
    <rect id="Rectangle_240" data-name="Rectangle 240" width="32.573" height="22" rx="2" transform="translate(1012.675 1048)" fill="#62d15f"/>
    <g id="CRDB" transform="translate(1016.675 1052.999)">
      <g id="Rectangle_191" data-name="Rectangle 191" fill="#fff" stroke="#52ab50" stroke-linejoin="round" stroke-width="1">
        <rect width="25.573" height="12.083" rx="6" stroke="none"/>
        <rect x="0.5" y="0.5" width="24.573" height="11.083" rx="5.5" fill="none"/>
      </g>
      <g id="Group_532" data-name="Group 532" transform="translate(3.624 3.384)">
        <path id="Path_2238" data-name="Path 2238" d="M7.851,8H7.695C5.925,8,4.153,7.981,2.384,8A2.22,2.22,0,0,1,.223,6.52,2.736,2.736,0,0,1,1.332,3.135a2.581,2.581,0,0,1,1.346-.378c.592,0,1.182,0,1.775,0a2.156,2.156,0,0,1,1.136.329c.033.02.069.071.11.038.02-.018.015-.071.015-.11-.005-.171-.005-.171.171-.174h2.03a1.1,1.1,0,0,1,1.116,1.1A1.347,1.347,0,0,1,8.5,5.078c-.158.128-.312.266-.472.391-.071.056-.071.1-.023.166a5.606,5.606,0,0,0,.595.682c.523.541,1.067,1.06,1.629,1.565.031.028.061.059.094.087-.023.046-.061.026-.089.026-.472,0-.945.005-1.417,0a1.137,1.137,0,0,1-.83-.444,2.615,2.615,0,0,1-.513-.786A1.754,1.754,0,0,0,6.461,5.8c-.066-.028-.133-.059-.2-.089-.008,0-.013-.01-.028-.026A4.853,4.853,0,0,0,6.9,5.221.405.405,0,0,0,6.717,5.2c-.3,0-.595-.005-.894,0-.092,0-.12-.018-.12-.117.008-.511,0-1.021,0-1.532,0-.028,0-.059-.005-.1a.505.505,0,0,0-.176.11c-.2.158-.4.317-.6.475-.041.033-.079.069-.107-.023A1.149,1.149,0,0,0,3.839,3.2,2.106,2.106,0,0,0,1.375,4.856,2.264,2.264,0,0,0,3.185,7.6a3.455,3.455,0,0,0,1.69-.179C5.44,7.24,5.981,7,6.538,6.8l.084-.031c.286-.084.352-.059.513.207.112.186.22.373.334.557A2.888,2.888,0,0,0,7.851,8Zm-1.2-3.856a1.377,1.377,0,0,0,.248.682c.138.225.14.23.327.051a1.494,1.494,0,0,0,.539-.827.593.593,0,0,0-.243-.605.487.487,0,0,0-.575-.008A.737.737,0,0,0,6.648,4.141Z" transform="translate(-0.02 -2.686)" fill="#52ab50"/>
        <path id="Path_2239" data-name="Path 2239" d="M471.5,8.905a5.723,5.723,0,0,0,.891-1,3.452,3.452,0,0,0,.672-1.685,2.6,2.6,0,0,0-1.034-2.359c-.051-.038-.1-.079-.151-.12.031-.043.071-.023.1-.023,1.182,0,2.367,0,3.549,0a1.163,1.163,0,0,1,.832.3.54.54,0,0,1,.181.409c0,.26,0,.518,0,.779a.691.691,0,0,1-.23.47,2.171,2.171,0,0,1-.444.363c-.077.046-.079.074-.005.13a2.98,2.98,0,0,1,.7.659A1.2,1.2,0,0,1,476.52,8.3a1.5,1.5,0,0,1-1.254.615c-1.213-.015-2.426-.005-3.639-.005C471.6,8.913,471.566,8.908,471.5,8.905Zm2.464-1.494c0,.2,0,.4,0,.6a.106.106,0,0,0,.074.115A1.329,1.329,0,0,0,475.2,8.1a.609.609,0,0,0,.357-.692,1.183,1.183,0,0,0-1.261-.935.359.359,0,0,0-.324.36C473.964,7.029,473.964,7.22,473.964,7.412Zm-.1-2.446a1.639,1.639,0,0,0,.043.631.389.389,0,0,0,.363.291,1.082,1.082,0,0,0,.919-.38.757.757,0,0,0,.038-1.024,1.074,1.074,0,0,0-.927-.365.463.463,0,0,0-.439.477C473.864,4.718,473.867,4.84,473.867,4.965Z" transform="translate(-459.461 -3.618)" fill="#52ab50"/>
        <path id="Path_2240" data-name="Path 2240" d="M341.288,2.528h-.735c-.133,0-.263,0-.4,0-.087,0-.089-.028-.054-.094a2.645,2.645,0,0,0,.3-.886,1.251,1.251,0,0,0-.391-1.192c-.107-.1-.209-.2-.317-.3.036-.038.074-.02.11-.02.746,0,1.489-.015,2.234.02a2.778,2.778,0,0,1,.781.1,1.805,1.805,0,0,1,1.037,1,2.72,2.72,0,0,1-.243,2.819,4.253,4.253,0,0,1-1.029,1.139.657.657,0,0,1-1.009-.046,3.158,3.158,0,0,1-.3-.317c-.046-.056-.059-.084.033-.1a1.965,1.965,0,0,0,1.6-1.895,3.282,3.282,0,0,0-.179-1.471,1.116,1.116,0,0,0-.631-.7,1.1,1.1,0,0,0-.3-.064.5.5,0,0,0-.569.368,2.853,2.853,0,0,0-.049,1.4A1.109,1.109,0,0,0,341.288,2.528Z" transform="translate(-331.027 -0.037)" fill="#52ab50"/>
      </g>
    </g>
  </g>
</svg>
