<svg xmlns="http://www.w3.org/2000/svg" width="55.563" height="18.461" viewBox="0 0 55.563 18.461">
  <g id="Group_530" data-name="Group 530" transform="translate(-0.001 -0.001)">
    <path id="Path_2229" data-name="Path 2229" d="M73.494,6.3c-1.4,3.06-2.774,6.122-4.177,9.183a16.522,16.522,0,0,1-.892,1.849,2.271,2.271,0,0,1-2.518,1.276c-1.179-.223-1.371-1.179-1.4-2.2-.192-3.668-.383-7.3-.861-10.968-.67,3.316-1.339,6.664-1.976,9.98a5.286,5.286,0,0,1-.765,2.391,1.7,1.7,0,0,1-1.945.765c-.925-.287-.989-1.053-.861-1.818.951-4.878,1.881-9.789,2.933-14.671.288-1.4,1.847-1.876,4.21-1.621,1.4.159,1.467,1.087,1.531,2.173.192,3.124.414,6.249.637,9.373.606,0,.573-.573.734-.892,1.371-2.933,2.717-5.867,4.075-8.8A3.953,3.953,0,0,1,77.347.688a1.21,1.21,0,0,1,.637,1.467c-.951,4.942-1.945,9.884-2.965,14.794a1.778,1.778,0,0,1-2.2,1.562c-1.276-.287-1.053-1.371-.861-2.36.637-3.252,1.276-6.537,1.913-9.789a.625.625,0,0,1-.375-.065Z" transform="translate(-39.55 -0.221)" fill="#0e4ea3"/>
    <path id="Path_2230" data-name="Path 2230" d="M136.348,9.356c3.571,1.69,2.743,5.612.67,7.588a7.115,7.115,0,0,1-4.783,1.818c-2.327.1-4.655.1-6.982.064-1.531-.031-2.009-.67-1.721-2.137.892-4.464,1.818-8.927,2.646-13.391A2.569,2.569,0,0,1,129.047.971c1.976,0,3.922-.031,5.9,0,2.581.031,4.113.892,4.619,2.615a4.961,4.961,0,0,1-2.36,5.3,6.724,6.724,0,0,0-.856.473Zm-6.409,6.759a7.415,7.415,0,0,0,3.73-.543,2.824,2.824,0,0,0,1.562-3.06c-.192-1.371-1.371-1.467-2.423-1.595a12.777,12.777,0,0,0-1.913-.031c-2.615,0-2.615,0-3.157,2.518C127.166,16.116,127.166,16.116,129.939,16.116Zm2.2-7.843a3.418,3.418,0,0,0,3.7-1.785c.67-1.434.192-2.391-1.371-2.646a16.856,16.856,0,0,0-2.551-.192c-2.3-.031-2.3,0-2.717,2.173-.44,2.449-.44,2.449,2.94,2.449Z" transform="translate(-84.104 -0.664)" fill="#0e4ea3"/>
    <path id="Path_2231" data-name="Path 2231" d="M5.412,6.4c-.573,3-1.148,5.929-1.758,8.864a10.75,10.75,0,0,1-.6,2.107,1.75,1.75,0,0,1-2.1,1.053c-1.02-.287-.989-1.148-.829-1.945.8-4.113,1.595-8.226,2.423-12.307a14.806,14.806,0,0,1,.511-2.36A2.487,2.487,0,0,1,5.285.059C6.371-.069,6.847.728,7.23,1.59c1.595,3.571,3.252,7.11,5.162,10.648L14.114,3.63a12.622,12.622,0,0,1,.641-2.456A1.63,1.63,0,0,1,16.831.123c.925.223,1.02,1.053.861,1.818-.951,4.942-1.913,9.884-2.933,14.794a2.152,2.152,0,0,1-2.038,1.754,2.118,2.118,0,0,1-2.232-1.467C9.055,13.9,7.652,10.74,6.218,7.616,6.051,7.2,6.018,6.69,5.412,6.4Z" transform="translate(-0.036 -0.038)" fill="#0e4ea3"/>
  </g>
</svg>
