<svg xmlns="http://www.w3.org/2000/svg" width="15.386" height="17.168" viewBox="0 0 15.386 17.168">
    <defs>
        <style>
            .cls-1{fill:#00a1db}
        </style>
    </defs>
    <g id="writing_1_" data-name="writing (1)" transform="translate(-26.57)">
        <g id="Group_576" data-name="Group 576" transform="translate(26.57)">
            <g id="Group_575" data-name="Group 575">
                <path id="Path_2291" d="M114.707 200.671a.671.671 0 0 0-.671-.671h-6.906a.671.671 0 1 0 0 1.341h6.907a.671.671 0 0 0 .67-.67z" class="cls-1" data-name="Path 2291" transform="translate(-103.78 -193.294)"/>
                <path id="Path_2292" d="M107.13 280a.671.671 0 0 0 0 1.341h4.195a.671.671 0 0 0 0-1.341z" class="cls-1" data-name="Path 2292" transform="translate(-103.78 -270.612)"/>
                <path id="Path_2293" d="M31.5 15.826h-2.248a1.343 1.343 0 0 1-1.341-1.341V2.682a1.343 1.343 0 0 1 1.341-1.341H37.5a1.343 1.343 0 0 1 1.341 1.341v4.124a.671.671 0 1 0 1.341 0V2.682A2.685 2.685 0 0 0 37.5 0h-8.248a2.685 2.685 0 0 0-2.682 2.682v11.8a2.685 2.685 0 0 0 2.682 2.682H31.5a.671.671 0 0 0 0-1.341z" class="cls-1" data-name="Path 2293" transform="translate(-26.57)"/>
                <path id="Path_2294" d="M250.982 272.612a2.014 2.014 0 0 0-2.845 0l-3.682 3.673a.671.671 0 0 0-.168.28l-.8 2.64a.67.67 0 0 0 .821.841l2.707-.75a.67.67 0 0 0 .295-.172l3.674-3.667a2.014 2.014 0 0 0-.002-2.845zm-4.5 5.438l-1.362.377.4-1.312 2.484-2.479.949.949zm3.549-3.542l-.13.13-.948-.948.13-.129a.671.671 0 0 1 .949.948z" class="cls-1" data-name="Path 2294" transform="translate(-236.185 -262.903)"/>
                <path id="Path_2295" d="M114.037 120h-6.907a.671.671 0 1 0 0 1.341h6.907a.671.671 0 1 0 0-1.341z" class="cls-1" data-name="Path 2295" transform="translate(-103.78 -115.976)"/>
            </g>
        </g>
    </g>
</svg>
