<svg xmlns="http://www.w3.org/2000/svg" width="19.375" height="17.273" viewBox="0 0 19.375 17.273">
    <defs>
        <style>
            .cls-1{fill:#00a1db;stroke:#00a1db;stroke-width:.5px}
        </style>
    </defs>
    <g id="purse" transform="translate(.25 -28.25)">
        <g id="Group_588" data-name="Group 588" transform="translate(0 28.499)">
            <g id="Group_587" data-name="Group 587">
                <path id="Path_2301" d="M18.046 35.5h-.276v-3.775a1.753 1.753 0 0 0-1.751-1.751H8.425L3.3 28.51H3.122l-.016.007h-.008l-.015.008h-.008l-.015.01-.007.006-.013.011-.007.007-.012.012-.007.008-.01.012-.004.025-.008.012-.006.011-.007.012-.006.013-.005.013v.032l-.316 1.265h-.89A1.753 1.753 0 0 0 0 31.719V41.31a.276.276 0 0 0 .553 0V33a1.744 1.744 0 0 0 1.2.476h14.266a1.2 1.2 0 0 1 1.2 1.2v1.934H14.124l-.021.005-.018.007h-.007l-.015.007h-.01l-.011.007-.012.007-.008.006-.014.01-.006.005-.014.013-.008.008-.011.012-.016.022-1.483 2.226a.272.272 0 0 0-.026.049c0 .006 0 .013-.007.019v.006c0 .007 0 .014-.005.021V39.158c0 .007 0 .014.005.021v.006c0 .006 0 .013.007.019a.275.275 0 0 0 .026.049l1.475 2.212a.286.286 0 0 0 .019.025l.007.008.015.015.009.008.017.013.008.006.026.016h.007l.022.01h.009l.021.007h3.113v1.936a1.2 1.2 0 0 1-1.2 1.2H1.751a1.2 1.2 0 0 1-1.2-1.2v-1.1a.276.276 0 0 0-.553 0v1.115a1.753 1.753 0 0 0 1.751 1.743h14.27a1.753 1.753 0 0 0 1.751-1.751v-1.929h.276a.83.83 0 0 0 .829-.829v-4.425a.83.83 0 0 0-.829-.833zM3.425 29.12L8.3 30.514l3.27.934H2.843zm13.792 4.28a1.744 1.744 0 0 0-1.2-.476H1.751a1.2 1.2 0 0 1 0-2.4H2.5l-.23.922h-.519a.276.276 0 0 0 0 .553h13.9a.276.276 0 0 0 0-.553h-2.064l-3.227-.922h5.658a1.2 1.2 0 0 1 1.2 1.2zm1.106 7.358a.277.277 0 0 1-.276.276h-3.724L13.032 39.1l1.29-1.936h3.735a.826.826 0 0 0 .265-.047v3.642zm-.276-4.148h-.277v-.553h.276a.276.276 0 0 1 0 .553z" class="cls-1" data-name="Path 2301" transform="translate(0 -28.499)"/>
            </g>
        </g>
        <g id="Group_590" data-name="Group 590" transform="translate(14.267 38.084)">
            <g id="Group_589" data-name="Group 589">
                <path id="Path_2302" d="M388.013 288.493a1.014 1.014 0 1 0 1.014 1.014 1.015 1.015 0 0 0-1.014-1.014zm0 1.475a.461.461 0 1 1 .461-.461.461.461 0 0 1-.461.461z" class="cls-1" data-name="Path 2302" transform="translate(-386.999 -288.493)"/>
            </g>
        </g>
    </g>
</svg>
