<svg xmlns="http://www.w3.org/2000/svg" width="30.73" height="38.393" viewBox="0 0 30.73 38.393">
    <defs>
        <style>
            .cls-1{fill:#ffb563}
        </style>
    </defs>
    <g id="shopping-bag">
        <path id="Path_2286" d="M79.522 33.187l-2.2-24.755a1.058 1.058 0 0 0-1.052-.966h-4.521a7.585 7.585 0 0 0-15.169 0h-4.522a1.053 1.053 0 0 0-1.052.966l-2.2 24.755c0 .031-.008.063-.008.094 0 2.819 2.583 5.111 5.763 5.111h19.2c3.18 0 5.763-2.293 5.763-5.111a.382.382 0 0 0-.002-.094zM64.165 2.12a5.47 5.47 0 0 1 5.465 5.347H58.7a5.47 5.47 0 0 1 5.465-5.347zm9.6 34.153h-19.2c-1.994 0-3.612-1.319-3.643-2.944l2.1-23.734h3.549v3.219a1.06 1.06 0 0 0 2.12 0v-3.22H69.63v3.219a1.06 1.06 0 1 0 2.12 0V9.594h3.55l2.11 23.735c-.031 1.625-1.656 2.944-3.643 2.944z" class="cls-1" data-name="Path 2286" transform="translate(-48.8)"/>
    </g>
</svg>
