<svg xmlns="http://www.w3.org/2000/svg" width="26.002" height="35.6" viewBox="0 0 26.002 35.6">
    <defs>
        <style>
            .cls-1,.cls-2{fill:#fdda44}.cls-1{stroke:#fdda43;stroke-width:.5px}
        </style>
    </defs>
    <g id="sim" transform="translate(.25 .249)">
        <g id="Group_540" data-name="Group 540">
            <g id="Group_539" data-name="Group 539">
                <path id="Path_2262" d="M81.3 42.9a.8.8 0 0 0-.563-.234H67.188A3.192 3.192 0 0 0 64 45.858v28.718a3.192 3.192 0 0 0 3.188 3.191h19.127a3.193 3.193 0 0 0 3.185-3.191V51.442a.8.8 0 0 0-.233-.564zm6.612 31.676a1.6 1.6 0 0 1-1.594 1.6h-19.13a1.6 1.6 0 0 1-1.594-1.6V45.858a1.6 1.6 0 0 1 1.594-1.6H80.4l7.506 7.51z" class="cls-1" data-name="Path 2262" transform="translate(-64 -42.667)"/>
                <path id="Path_2263" d="M128 215.8v13.17a2.472 2.472 0 0 0 2.469 2.469h11.523a2.472 2.472 0 0 0 2.469-2.469V215.8a2.472 2.472 0 0 0-2.469-2.469h-11.523A2.472 2.472 0 0 0 128 215.8zm4.939 13.993h-2.469a.824.824 0 0 1-.823-.823v-2.47h3.292zm4.939 0h-3.292V226.5h3.292zm4.939-.823a.824.824 0 0 1-.823.823h-2.469v-4.113a.823.823 0 0 0-.823-.823h-9.054v-4.939h13.17zm-3.292-13.993h2.469a.824.824 0 0 1 .823.823v2.469h-3.292zm-4.939 0h3.292v3.292h-3.292v-3.292zm-1.646 3.292h-3.292V215.8a.824.824 0 0 1 .823-.823h2.469z" class="cls-2" data-name="Path 2263" transform="translate(-123.375 -201.279)"/>
            </g>
        </g>
    </g>
</svg>
