<svg xmlns="http://www.w3.org/2000/svg" width="44.374" height="29.5" viewBox="0 0 44.374 29.5">
  <g id="TT" transform="translate(-0.005 0)">
    <path id="Path_8" data-name="Path 8" d="M306.1,248.523c0-1.808-.1-3.617.034-5.425.229-3.617.229-6.84-4.964-6.28-2.006.229-2.5-1.545-2.392-3.222.066-1.611.821-2.7,2.63-2.7h15.521c1.776,0,2.564.987,2.63,2.664.066,1.742-.461,3.453-2.432,3.256-5.293-.558-5.03,2.729-4.932,6.314.132,4.538-.034,9.075.032,13.581.034,2.335-.756,3.748-3.321,3.682-2.466-.066-2.861-1.677-2.827-3.716.1-2.729.066-5.425.032-8.154Z" transform="translate(-298.764 -230.9)" fill="#ffca06"/>
    <path id="Path_9" data-name="Path 9" d="M377.806,248.523c0-1.808-.1-3.617.032-5.425.229-3.617.229-6.84-4.964-6.28-2.006.229-2.5-1.545-2.392-3.222.066-1.611.821-2.7,2.63-2.7h15.521c1.776,0,2.564.987,2.63,2.664.066,1.742-.461,3.453-2.432,3.256-5.293-.558-5.03,2.729-4.932,6.314.132,4.538-.034,9.075.032,13.581.034,2.335-.756,3.748-3.321,3.682-2.466-.066-2.861-1.677-2.827-3.716.1-2.729.034-5.425.034-8.154Z" transform="translate(-346.887 -230.9)" fill="#ffca06"/>
  </g>
</svg>
