<svg xmlns="http://www.w3.org/2000/svg" width="38.393" height="38.393" viewBox="0 0 38.393 38.393">
    <defs>
        <style>
            .cls-1{fill:#fa7167}
        </style>
    </defs>
    <g id="vegetables">
        <g id="Group_542" data-name="Group 542" transform="translate(3.974 33.897)">
            <g id="Group_541" data-name="Group 541">
                <path id="Path_2275" d="M55.145 451.122l-.007-.005a.737.737 0 0 0-.9 1.17l.007.005a.737.737 0 0 0 .9-1.17z" class="cls-1" data-name="Path 2275" transform="translate(-53.953 -450.965)"/>
            </g>
        </g>
        <g id="Group_544" data-name="Group 544" transform="translate(3.974 27.687)">
            <g id="Group_543" data-name="Group 543">
                <path id="Path_2276" d="M55.145 369.122l-.007-.005a.737.737 0 0 0-.9 1.17l.007.005a.737.737 0 0 0 .9-1.17z" class="cls-1" data-name="Path 2276" transform="translate(-53.953 -368.965)"/>
            </g>
        </g>
        <g id="Group_546" data-name="Group 546" transform="translate(3.974 21.534)">
            <g id="Group_545" data-name="Group 545">
                <path id="Path_2277" d="M55.145 287.122l-.007-.005a.737.737 0 0 0-.9 1.17l.007.005a.737.737 0 0 0 .9-1.17z" class="cls-1" data-name="Path 2277" transform="translate(-53.953 -286.965)"/>
            </g>
        </g>
        <g id="Group_548" data-name="Group 548" transform="translate(32.935 33.897)">
            <g id="Group_547" data-name="Group 547">
                <path id="Path_2278" d="M439.095 451.119l-.007-.005a.737.737 0 1 0-.89 1.174l.007.005a.737.737 0 0 0 .89-1.174z" class="cls-1" data-name="Path 2278" transform="translate(-437.906 -450.964)"/>
            </g>
        </g>
        <g id="Group_550" data-name="Group 550" transform="translate(32.935 27.687)">
            <g id="Group_549" data-name="Group 549">
                <path id="Path_2279" d="M439.1 369.12l-.007-.005a.737.737 0 1 0-.89 1.174l.007.005a.737.737 0 1 0 .89-1.174z" class="cls-1" data-name="Path 2279" transform="translate(-437.907 -368.965)"/>
            </g>
        </g>
        <g id="Group_552" data-name="Group 552" transform="translate(32.935 21.534)">
            <g id="Group_551" data-name="Group 551">
                <path id="Path_2280" d="M439.095 287.12l-.007-.005a.737.737 0 1 0-.89 1.174l.007.005a.737.737 0 1 0 .89-1.174z" class="cls-1" data-name="Path 2280" transform="translate(-437.906 -286.965)"/>
            </g>
        </g>
        <g id="Group_554" data-name="Group 554" transform="translate(26.965 24.613)">
            <g id="Group_553" data-name="Group 553">
                <path id="Path_2281" d="M360.088 328h-.01a.737.737 0 1 0 0 1.473h.01a.737.737 0 1 0 0-1.473z" class="cls-1" data-name="Path 2281" transform="translate(-359.342 -328)"/>
            </g>
        </g>
        <g id="Group_556" data-name="Group 556" transform="translate(9.945 30.879)">
            <g id="Group_555" data-name="Group 555">
                <path id="Path_2282" d="M133.274 410h-.01a.737.737 0 1 0 0 1.473h.01a.737.737 0 1 0 0-1.473z" class="cls-1" data-name="Path 2282" transform="translate(-132.528 -410)"/>
            </g>
        </g>
        <g id="Group_558" data-name="Group 558" transform="translate(4.694 13.677)">
            <g id="Group_557" data-name="Group 557">
                <path id="Path_2283" d="M64.977 182.476a.736.736 0 1 0 .216.522.742.742 0 0 0-.216-.522z" class="cls-1" data-name="Path 2283" transform="translate(-63.72 -182.26)"/>
            </g>
        </g>
        <g id="Group_560" data-name="Group 560">
            <g id="Group_559" data-name="Group 559">
                <path id="Path_2284" d="M37.643 18.447h-3.114a4.462 4.462 0 0 0-.213-7.859 4.465 4.465 0 0 0-6.259-5.718 5.184 5.184 0 0 0-2.988-.947c-.073 0-.145 0-.218.006a5.8 5.8 0 0 0-10.72-.634 5.724 5.724 0 0 0-.54-.025 5.8 5.8 0 0 0-5.346 3.546q-.238-.073-.484-.127A3.323 3.323 0 0 1 8.67 4.5a2.01 2.01 0 0 1 .925-.523h-.01a.749.749 0 0 0-.108-1.491.743.743 0 0 0-.125.011 3.282 3.282 0 0 0-1.616.827V.75A.75.75 0 0 0 6.985 0h-1.8a.75.75 0 0 0-.75.75v2.8A9.023 9.023 0 0 0 2.57 1.831a.75.75 0 0 0-.821 1.255A6.453 6.453 0 0 1 4.38 6.807 5.965 5.965 0 0 0 0 12.426a34.714 34.714 0 0 0 1.233 6.02H.75A.75.75 0 0 0 0 19.2v18.443a.75.75 0 0 0 .75.75h36.893a.75.75 0 0 0 .75-.75V19.2a.75.75 0 0 0-.75-.753zM13.592 4.769a4.335 4.335 0 0 1 .859.086.75.75 0 0 0 .856-.485 4.3 4.3 0 0 1 8.052-.156 5.2 5.2 0 0 0-3.483 4.9.75.75 0 1 0 1.5 0 3.692 3.692 0 0 1 6.142-2.763.75.75 0 0 0 .948.039 2.937 2.937 0 0 1 1.776-.59 2.963 2.963 0 0 1 2.378 4.73.75.75 0 0 0 .418 1.175 2.963 2.963 0 0 1-.727 5.835 2.992 2.992 0 0 1-.562-.054.75.75 0 0 0-.848.485 2.948 2.948 0 0 1-.22.477h-.947l3.071-4.4a.75.75 0 0 0-.2-1.053l-2.185-1.458a.75.75 0 0 0-1.057.237l-1.093 1.81.895-4.527a.75.75 0 0 0-.585-.88l-1.908-.392a.75.75 0 0 0-.888.6L25.538 9.7h-1.75a.75.75 0 0 0-.75.75v4.315a5.558 5.558 0 0 0-5.445-4.484 5.5 5.5 0 0 0-3.336 1.114 5.6 5.6 0 0 0-1.8 2.339 8.338 8.338 0 0 0 .143-1.305 5.573 5.573 0 0 0-.762-2.811 2.747 2.747 0 0 1 3.125-1.745.75.75 0 0 0 .856-.485 2.766 2.766 0 0 1 .81-1.179.75.75 0 0 0-.975-1.14 4.273 4.273 0 0 0-1 1.256q-.118-.007-.237-.007a4.248 4.248 0 0 0-3.6 2 6.285 6.285 0 0 0-1.192-.9 4.3 4.3 0 0 1 3.967-2.649zM27.417 17.9l2.824-4.677.9.6-3.231 4.631h-.6zm-.938-2.989v-2.086c0-.016.008-.031.011-.048l.628-3.37.431.089zm-1.946 2.239a.766.766 0 0 0 .005-.086V11.2h.441v7.25h-.237v-.141a3.258 3.258 0 0 0-.209-1.163zm-10.285-3.5h-.066a4.047 4.047 0 0 1 7.393 1.441 3.127 3.127 0 0 0-2.526 1.328 5.551 5.551 0 0 0-4.802-2.772zm3.979 4.8h-7.958a4.048 4.048 0 0 1 7.957 0zm3.373-1.86a1.686 1.686 0 0 1 1.65 1.716c0 .047 0 .094-.006.141h-3.292c0-.047-.006-.094-.006-.141A1.686 1.686 0 0 1 21.6 16.59zM5.936 1.5h.3v5.028c-.1 0-.2 0-.3.009zM1.544 11.834a.752.752 0 0 0 .144.014H5.4a.75.75 0 1 0 0-1.5H2.07A4.878 4.878 0 0 1 6.3 8.026a4.618 4.618 0 0 1 4.8 4.4 7.587 7.587 0 0 1-.15 1.221H7.969a.75.75 0 1 0 0 1.5h2.49a5.54 5.54 0 0 0-1.709 3.3H2.785A35.516 35.516 0 0 1 1.5 12.426a4.054 4.054 0 0 1 .044-.592zM36.893 24.6h-6.6a.75.75 0 1 0 0 1.5h6.6v4.649h-23.65a.75.75 0 1 0 0 1.5h23.65v4.649H1.5v-4.654h6.6a.75.75 0 1 0 0-1.5H1.5V26.1h23.65a.75.75 0 1 0 0-1.5H1.5v-4.654h35.393z" class="cls-1" data-name="Path 2284"/>
            </g>
        </g>
        <g id="Group_562" data-name="Group 562" transform="translate(17.659 3.978)">
            <g id="Group_561" data-name="Group 561">
                <path id="Path_2285" d="M236.079 54h-.01a.737.737 0 1 0 0 1.473h.01a.737.737 0 0 0 0-1.473z" class="cls-1" data-name="Path 2285" transform="translate(-235.333 -54)"/>
            </g>
        </g>
    </g>
</svg>
